<svg width="275" height="123" viewBox="0 0 275 123" fill="none" xmlns="http://www.w3.org/2000/svg">
<g clip-path="url(#clip0)">
<path d="M88.25 108.406L79.6719 81.2656H47.3281L39.0312 108.406L27.2188 107L57.875 12.7812H69.4062L100.484 106.438L88.25 108.406ZM63.5 27.6875L50.4219 71.2812H76.8594L63.5 27.6875ZM139.156 108.406C133.719 108.406 128.469 107.469 123.406 105.594C117.781 103.438 113.516 100.391 110.609 96.4531L117.219 87.3125C123.031 94.1562 130.484 97.5312 139.578 97.4375C144.922 97.4375 149.188 95.9844 152.375 93.0781C155.562 90.1719 157.156 86.0469 157.156 80.7031C157.156 74.2344 153.359 69.4062 145.766 66.2188C141.078 64.3438 134 61.4375 124.531 57.5C117.031 52.8125 113.328 45.5469 113.422 35.7031C113.516 28.3906 116.422 22.3906 122.141 17.7031C127.391 13.2969 133.766 11.0938 141.266 11.0938C150.078 11.0938 158.188 14 165.594 19.8125L159.547 28.9531C154.484 24.3594 148.391 22.0625 141.266 22.0625C131.516 22.0625 126.641 26.8906 126.641 36.5469C126.641 42.6406 131.609 47.375 141.547 50.75C152.047 54.3125 158.938 57.4531 162.219 60.1719C167.094 64.3906 169.531 71.1406 169.531 80.4219C169.531 89.3281 166.719 96.2188 161.094 101.094C155.469 105.969 148.156 108.406 139.156 108.406ZM235.062 108.406C230.188 103.531 224.516 96.5 218.047 87.3125C213.641 81.0312 208.859 73.625 203.703 65.0938L197.375 65.375V107H184.578V14.75L213.547 14.3281C230.328 14.5156 238.672 23 238.578 39.7812C238.484 46.4375 236.469 51.875 232.531 56.0938C228.594 60.3125 223.25 63.0781 216.5 64.3906C219.688 68.7969 224.844 75.6875 231.969 85.0625C235.812 90.0312 242.188 96.875 251.094 105.594L235.062 108.406ZM209.891 23.0469L197.375 23.3281V55.6719H206.656C213.594 55.6719 218.656 54.4062 221.844 51.875C225.125 49.3438 226.766 44.7969 226.766 38.2344C226.766 27.8281 221.141 22.7656 209.891 23.0469Z" fill="black"/>
</g>
<defs>
<clipPath id="clip0">
<rect width="275" height="123" fill="white"/>
</clipPath>
</defs>
</svg>
